<svg width="42" height="38" viewBox="0 0 42 38" fill="none" xmlns="http://www.w3.org/2000/svg">
<g id="Vector" filter="url(#filter0_d_1_3)">
<path d="M8.05467 37.7559C7.90336 37.8472 7.71668 37.7117 7.75651 37.5396L10.8729 24.0673C10.8896 23.9951 10.865 23.9197 10.809 23.8711L0.356995 14.8095C0.223489 14.6938 0.294679 14.4744 0.470712 14.4591L14.28 13.2604C14.3538 13.254 14.418 13.2073 14.4469 13.139L19.8158 0.435883C19.8846 0.273029 20.1154 0.27303 20.1842 0.435883L25.5531 13.139C25.582 13.2073 25.6462 13.254 25.72 13.2604L39.5293 14.4591C39.7053 14.4744 39.7765 14.6938 39.643 14.8095L29.191 23.8711C29.135 23.9197 29.1104 23.9951 29.1271 24.0673L32.2435 37.5396C32.2833 37.7117 32.0966 37.8472 31.9453 37.7559L20.1033 30.6123C20.0398 30.574 19.9602 30.574 19.8967 30.6123L8.05467 37.7559Z" fill="var(--color-accent)"/>
</g>
<defs>
<filter id="filter0_d_1_3" x="0.287735" y="0.313736" width="41.4245" height="37.4715" filterUnits="userSpaceOnUse" color-interpolation-filters="sRGB">
<feFlood flood-opacity="0" result="BackgroundImageFix"/>
<feColorMatrix in="SourceAlpha" type="matrix" values="0 0 0 0 0 0 0 0 0 0 0 0 0 0 0 0 0 0 127 0" result="hardAlpha"/>
<feOffset dx="2"/>
<feComposite in2="hardAlpha" operator="out"/>
<feColorMatrix type="matrix" values="0 0 0 0 0.121569 0 0 0 0 0.121569 0 0 0 0 0.121569 0 0 0 1 0"/>
<feBlend mode="normal" in2="BackgroundImageFix" result="effect1_dropShadow_1_3"/>
<feBlend mode="normal" in="SourceGraphic" in2="effect1_dropShadow_1_3" result="shape"/>
</filter>
</defs>
</svg>
