<svg width="40" height="38" viewBox="0 0 40 38" fill="none" xmlns="http://www.w3.org/2000/svg">
<path id="Vector" d="M12.2587 31.2893C12.2181 31.4614 12.4044 31.5977 12.5561 31.5069L19.8967 27.1118C19.9603 27.0738 20.0396 27.074 20.103 27.1123L27.4424 31.5534C27.5941 31.6451 27.7813 31.5088 27.7406 31.3363L25.7777 23.0176C25.7607 22.9453 25.7851 22.8695 25.8412 22.8207L32.2947 17.2089C32.4279 17.0931 32.3568 16.8742 32.181 16.8588L23.6699 16.1105C23.5961 16.1041 23.532 16.0574 23.5032 15.9892L20.1837 8.13461C20.1149 7.97194 19.8845 7.97169 19.8154 8.13421L16.497 15.9395C16.4681 16.0075 16.404 16.054 16.3304 16.0605L7.81898 16.8088C7.64321 16.8242 7.57211 17.0431 7.70526 17.1589L14.1588 22.7707C14.2149 22.8195 14.2393 22.8953 14.2223 22.9676L12.2587 31.2893ZM8.05467 37.7559C7.90336 37.8472 7.71668 37.7117 7.75651 37.5396L10.8729 24.0673C10.8896 23.9951 10.865 23.9197 10.809 23.8711L0.356995 14.8095C0.223489 14.6938 0.294679 14.4744 0.470712 14.4591L14.28 13.2604C14.3538 13.254 14.418 13.2073 14.4469 13.139L19.8158 0.435883C19.8846 0.273029 20.1154 0.27303 20.1842 0.435883L25.5531 13.139C25.582 13.2073 25.6462 13.254 25.72 13.2604L39.5293 14.4591C39.7053 14.4744 39.7765 14.6938 39.643 14.8095L29.191 23.8711C29.135 23.9197 29.1104 23.9951 29.1271 24.0673L32.2435 37.5396C32.2833 37.7117 32.0966 37.8472 31.9453 37.7559L20.1033 30.6123C20.0398 30.574 19.9602 30.574 19.8967 30.6123L8.05467 37.7559Z" fill="#1F1F1F"/>
</svg>
